<svg width="520" height="640" viewBox="0 0 520 640" xmlns="http://www.w3.org/2000/svg">
  <defs>
    <linearGradient id="ringGradFull" x1="0%" y1="0%" x2="100%" y2="100%">
      <stop offset="0%" stop-color="#E0C878" />
      <stop offset="50%" stop-color="#C9A74B" />
      <stop offset="100%" stop-color="#A98C38" />
    </linearGradient>
    <linearGradient id="ringGradOuterFull" x1="0%" y1="100%" x2="100%" y2="0%">
      <stop offset="0%" stop-color="#A98C38" />
      <stop offset="100%" stop-color="#E0C878" />
    </linearGradient>
    <linearGradient id="bgGradCircleFull" x1="0%" y1="0%" x2="100%" y2="100%">
      <stop offset="0%" stop-color="#1F3145" />
      <stop offset="100%" stop-color="#12202E" />
    </linearGradient>
  </defs>

  <g transform="translate(60,20)">
    <circle cx="200" cy="200" r="192" fill="url(#bgGradCircleFull)" />
    <path d="M 200 16 A 184 184 0 0 1 200 384" fill="none" stroke="url(#ringGradFull)" stroke-width="7" opacity="0.9" />
    <path d="M 200 28 A 172 172 0 0 0 200 372" fill="none" stroke="url(#ringGradOuterFull)" stroke-width="4" opacity="0.55" />

    <g transform="translate(200,168)">
      <path d="M -92 16 L 0 -68 L 92 16" fill="none" stroke="url(#ringGradFull)" stroke-width="13" stroke-linecap="round" stroke-linejoin="round" />
      <path d="M -68 4 L -68 76 L 68 76 L 68 4" fill="none" stroke="url(#ringGradFull)" stroke-width="13" stroke-linecap="round" stroke-linejoin="round" />
      <rect x="-18" y="30" width="36" height="46" fill="none" stroke="url(#ringGradFull)" stroke-width="8" stroke-linejoin="round" />
      <line x1="-40" y1="-16" x2="-40" y2="8" stroke="url(#ringGradFull)" stroke-width="8" stroke-linecap="round" />
      <line x1="-48" y1="-24" x2="-32" y2="-24" stroke="url(#ringGradFull)" stroke-width="8" stroke-linecap="round" />
    </g>

    <path d="M 68 276 Q 200 236 332 276 Q 260 304 200 296 Q 140 304 68 276 Z" fill="url(#ringGradFull)" opacity="0.95" />
    <path d="M 48 296 Q 200 344 352 296" fill="none" stroke="url(#ringGradFull)" stroke-width="7" stroke-linecap="round" opacity="0.85" />

    <text x="200" y="264" text-anchor="middle" font-family="'Playfair Display', Georgia, serif" font-weight="700" font-size="52" fill="#F5F0EB">RK</text>
  </g>

  <text x="260" y="500" text-anchor="middle" font-family="'Playfair Display', Georgia, serif" font-weight="700" font-size="46" fill="#1A2A3A">RK Associates</text>

  <text x="260" y="536" text-anchor="middle" font-family="'Inter', sans-serif" font-weight="600" font-size="15" letter-spacing="5" fill="#C9A74B">ESTATE AGENCY</text>

  <line x1="180" y1="554" x2="340" y2="554" stroke="url(#ringGradFull)" stroke-width="1.5" opacity="0.7" />
</svg>
