<svg width="200" height="200" viewBox="0 0 200 200" xmlns="http://www.w3.org/2000/svg">
  <defs>
    <linearGradient id="ringGrad" x1="0%" y1="0%" x2="100%" y2="100%">
      <stop offset="0%" stop-color="#E0C878" />
      <stop offset="50%" stop-color="#C9A74B" />
      <stop offset="100%" stop-color="#A98C38" />
    </linearGradient>
    <linearGradient id="ringGradOuter" x1="0%" y1="100%" x2="100%" y2="0%">
      <stop offset="0%" stop-color="#A98C38" />
      <stop offset="100%" stop-color="#E0C878" />
    </linearGradient>
    <linearGradient id="bgGradCircle" x1="0%" y1="0%" x2="100%" y2="100%">
      <stop offset="0%" stop-color="#1F3145" />
      <stop offset="100%" stop-color="#12202E" />
    </linearGradient>
  </defs>

  <circle cx="100" cy="100" r="96" fill="url(#bgGradCircle)" />

  <path d="M 100 8 A 92 92 0 0 1 100 192" fill="none" stroke="url(#ringGrad)" stroke-width="3.5" opacity="0.9" />
  <path d="M 100 14 A 86 86 0 0 0 100 186" fill="none" stroke="url(#ringGradOuter)" stroke-width="2" opacity="0.55" />

  <g transform="translate(100,84)">
    <path d="M -46 8 L 0 -34 L 46 8" fill="none" stroke="url(#ringGrad)" stroke-width="6.5" stroke-linecap="round" stroke-linejoin="round" />
    <path d="M -34 2 L -34 38 L 34 38 L 34 2" fill="none" stroke="url(#ringGrad)" stroke-width="6.5" stroke-linecap="round" stroke-linejoin="round" />
    <rect x="-9" y="15" width="18" height="23" fill="none" stroke="url(#ringGrad)" stroke-width="4" stroke-linejoin="round" />
    <line x1="-20" y1="-8" x2="-20" y2="4" stroke="url(#ringGrad)" stroke-width="4" stroke-linecap="round" />
    <line x1="-24" y1="-12" x2="-16" y2="-12" stroke="url(#ringGrad)" stroke-width="4" stroke-linecap="round" />
  </g>

  <path d="M 34 138 Q 100 118 166 138 Q 130 152 100 148 Q 70 152 34 138 Z" fill="url(#ringGrad)" opacity="0.95" />
  <path d="M 24 148 Q 100 172 176 148" fill="none" stroke="url(#ringGrad)" stroke-width="3.5" stroke-linecap="round" opacity="0.85" />

  <text x="100" y="132" text-anchor="middle" font-family="'Playfair Display', Georgia, serif" font-weight="700" font-size="26" fill="#F5F0EB">RK</text>
</svg>
